<?xml version="1.0" encoding="utf-8"?>
<svg width="236px" height="183px" viewBox="0 0 236 183" version="1.1" xmlns:xlink="http://www.w3.org/1999/xlink" xmlns="http://www.w3.org/2000/svg">
  <desc>Created with Lunacy</desc>
  <g id="Group">
    <g id="Group">
      <path d="M0 91.5C0 40.9659 40.5182 0 90.5 0C140.482 0 181 40.9659 181 91.5C181 142.034 140.482 183 90.5 183C40.5182 183 0 142.034 0 91.5Z" id="Oval" fill="#7CD0B9" stroke="none" />
      <path d="M0 91.5C0 40.9659 40.5182 0 90.5 0C140.482 0 181 40.9659 181 91.5C181 142.034 140.482 183 90.5 183C40.5182 183 0 142.034 0 91.5Z" transform="translate(55 0)" id="Oval-copy" fill="#2C3942" stroke="none" />
      <g id="Push" transform="translate(11.00803 48.5)">
        <g id="P" fill="#2C3942">
          <path d="M4.896 68.06L4.896 16.94L26.712 16.94Q30.384 16.94 33.444 18.452Q36.504 19.964 38.7 22.412Q40.896 24.86 42.156 27.956Q43.416 31.052 43.416 34.22Q43.416 37.604 42.228 40.7Q41.04 43.796 38.916 46.244Q36.792 48.692 33.768 50.132Q30.744 51.572 27.072 51.572L16.704 51.572L16.704 68.06L4.896 68.06ZM16.704 41.276L26.352 41.276Q28.44 41.276 29.952 39.476Q31.464 37.676 31.464 34.22Q31.464 32.42 30.996 31.124Q30.528 29.828 29.736 28.964Q28.944 28.1 27.936 27.704Q26.928 27.308 25.92 27.308L16.704 27.308L16.704 41.276Z" />
        </g>
        <g id="ush" fill="#7CD0B9">
          <path d="M154.8 68.06L166.32 68.06L166.32 43.868Q166.32 41.42 165.888 38.864Q165.456 36.308 164.196 34.256Q162.936 32.204 160.596 30.872Q158.256 29.54 154.44 29.54Q150.336 29.54 146.916 31.376Q143.496 33.212 141.408 36.596L141.408 15.5L129.888 15.5L129.888 68.06L141.408 68.06L141.408 46.388Q141.912 44.876 142.848 43.652Q143.784 42.428 144.9 41.528Q146.016 40.628 147.204 40.16Q148.392 39.692 149.4 39.692Q151.92 39.692 153.36 41.42Q154.8 43.148 154.8 46.82L154.8 68.06ZM108.864 68.78Q104.04 68.78 99.36 67.232Q94.68 65.684 91.44 62.732L95.544 55.676Q99 58.052 102.276 59.348Q105.552 60.644 108.576 60.644Q110.808 60.644 112.032 59.852Q113.256 59.06 113.256 57.548Q113.256 56.036 111.708 55.136Q110.16 54.236 106.272 53.228Q102.456 52.148 99.828 51.14Q97.2 50.132 95.544 48.908Q93.888 47.684 93.168 46.1Q92.448 44.516 92.448 42.356Q92.448 39.476 93.6 37.1Q94.752 34.724 96.768 33.068Q98.784 31.412 101.556 30.476Q104.328 29.54 107.568 29.54Q111.816 29.54 115.524 30.692Q119.232 31.844 122.688 34.868L118.224 41.78Q114.984 39.548 112.464 38.54Q109.944 37.532 107.568 37.532Q105.696 37.532 104.4 38.288Q103.104 39.044 103.104 40.7Q103.104 42.284 104.508 43.076Q105.912 43.868 109.728 44.804Q113.76 45.884 116.532 46.964Q119.304 48.044 121.032 49.376Q122.76 50.708 123.552 52.436Q124.344 54.164 124.344 56.54Q124.344 62.156 120.168 65.468Q115.992 68.78 108.864 68.78ZM60.264 68.78Q54.432 68.78 51.444 65.144Q48.456 61.508 48.456 54.452L48.456 30.26L59.976 30.26L59.976 51.932Q59.976 55.388 61.344 57.224Q62.712 59.06 65.232 59.06Q67.536 59.06 69.696 57.836Q71.856 56.612 73.512 53.588L73.512 30.26L85.032 30.26L85.032 55.1Q85.032 56.828 85.572 57.512Q86.112 58.196 87.48 58.34L87.48 68.06Q85.824 68.42 84.672 68.528Q83.52 68.636 82.584 68.636Q76.392 68.636 75.528 63.812L75.312 61.508Q72.72 65.252 68.868 67.016Q65.016 68.78 60.264 68.78Z" />
        </g>
      </g>
    </g>
    <g id="Group" transform="translate(181 73)">
      <path d="M0 25C0 11.1929 11.1929 0 25 0C38.8071 0 50 11.1929 50 25C50 38.8071 38.8071 50 25 50C11.1929 50 0 38.8071 0 25Z" id="Oval-copy" fill="#7CD0B9" stroke="none" />
      <path d="M0 22.5C0 10.0736 10.0736 0 22.5 0C34.9264 0 45 10.0736 45 22.5C45 34.9264 34.9264 45 22.5 45C10.0736 45 0 34.9264 0 22.5Z" transform="translate(2.5 2.5)" id="Oval-copy-copy" fill="#2C3941" stroke="none" />
      <path d="M0 20C0 8.9543 8.9543 0 20 0C31.0457 0 40 8.9543 40 20C40 31.0457 31.0457 40 20 40C8.9543 40 0 31.0457 0 20Z" transform="translate(5 5)" id="Oval" fill="#7CD0B9" stroke="none" />
      <path d="M0 17.5C0 7.83502 7.83502 0 17.5 0C27.165 0 35 7.83502 35 17.5C35 27.165 27.165 35 17.5 35C7.83502 35 0 27.165 0 17.5Z" transform="translate(7.5 7.5)" id="Oval-copy" fill="#2C3941" stroke="none" />
    </g>
  </g>
</svg>